<?xml version="1.0" standalone="no"?>
<!DOCTYPE svg PUBLIC "-//W3C//DTD SVG 1.1//EN" "http://www.w3.org/Graphics/SVG/1.1/DTD/svg11.dtd" >
<!--
2013-9-30: Created.
-->
<svg>
<metadata>
Created by iconfont
</metadata>
<defs>

<font id="iconfont" horiz-adv-x="1024" >
  <font-face
    font-family="iconfont"
    font-weight="500"
    font-stretch="normal"
    units-per-em="1024"
    ascent="896"
    descent="-128"
  />
    <missing-glyph />
    
    <glyph glyph-name="x" unicode="x" horiz-adv-x="1001"
d="M281 543q-27 -1 -53 -1h-83q-18 0 -36.5 -6t-32.5 -18.5t-23 -32t-9 -45.5v-76h912v41q0 16 -0.5 30t-0.5 18q0 13 -5 29t-17 29.5t-31.5 22.5t-49.5 9h-133v-97h-438v97zM955 310v-52q0 -23 0.5 -52t0.5 -58t-10.5 -47.5t-26 -30t-33 -16t-31.5 -4.5q-14 -1 -29.5 -0.5
t-29.5 0.5h-32l-45 128h-439l-44 -128h-29h-34q-20 0 -45 1q-25 0 -41 9.5t-25.5 23t-13.5 29.5t-4 30v167h911zM163 247q-12 0 -21 -8.5t-9 -21.5t9 -21.5t21 -8.5q13 0 22 8.5t9 21.5t-9 21.5t-22 8.5zM316 123q-8 -26 -14 -48q-5 -19 -10.5 -37t-7.5 -25t-3 -15t1 -14.5
t9.5 -10.5t21.5 -4h37h67h81h80h64h36q23 0 34 12t2 38q-5 13 -9.5 30.5t-9.5 34.5q-5 19 -11 39h-368zM336 498v228q0 11 2.5 23t10 21.5t20.5 15.5t34 6h188q31 0 51.5 -14.5t20.5 -52.5v-227h-327z" />
    

    
    <glyph glyph-name="databasemysql" unicode="&#58999;" d="M743.5 241.5C625.183424 241.5 529.5 145.816576 529.5 27.5 529.5-90.816576 625.183424-187 743.5-187 861.816576-187 957.5-90.816576 957.5 27.5 957.5 145.816576 861.816576 241.5 743.5 241.5zM608.5 158 633 158C633 157.39584 632.75808 156.1168 633 156 644.60056 150.161168 653.526352 139.69648 668 139 691.778144 137.83888 709.648336 124.89568 727.5 111.5 756.916112 89.514368 774.54816 59.734704 788 27 791.462128 18.63064 795.595296 10.126464 800.5 2.5 803.38512-1.96912 808.011152-6.445296 813-8.5 836.11696-18.041856 856.064208-31.650256 874-51.5 859.249856-54.622624 845.990592-57.354256 831-60.5 833.921184-63.657392 835.312144-65.723936 837.5-67.5 850.507072-78.144544 863.788576-89.017936 877-99.5 878.56288-100.71872 881.064576-101.19904 883-102L883-103.5C871.279232-97.463808 859.348096-92.128176 848-85.5 839.52496-80.566576 830.743936-74.848768 824-68 813.914112-57.842928 815.362944-54.518096 829.5-51.5 839.117056-49.44544 849.101568-48.43952 859.5-47 858.9712-45.56064 858.75728-43.99904 858-43.5 842.769008-33.029488 828.4456-21.039616 809.5-17 798.945312-14.73648 793.351712-7.984672 789 1 777.964432 23.624064 767.759504 46.6296 754.5 68 737.189328 95.82448 711.748256 115.717824 680 127.5 678.55744 128.0336 676.90656 129.1152 675.5 129 656.650592 127.316864 643.043552 139.000352 627.5 146 625.227984 147.01008 622.84416 148.5 620.5 148.5 617.60288 148.5 613.55072 147.8112 612 146 610.53344 144.270432 610.94208 140.368032 612 138 613.827232 133.8792 617.24 130.446784 619.5 126.5 625.775136 115.507152 631.441264 104.608912 637.5 93.5 643.702992 82.112496 650.386048 70.64288 656 59 657.47856 55.970336 657.67792 51.099472 656.5 48 650.26096 32.050528 648.446592 16.273632 651.5-0.5 653.170992-9.693536 655.815712-18.221744 665-25.5 670.770224-11.570336 666.939952 3.957344 680.5 13 690.525776-4.841568 700.817952-22.845024 711-41 710.30256-41.58064 709.19728-41.96624 708.5-42.5 699.255616-31.054464 690.405584-19.816128 680.5-7.5 679.58624-12.74688 679.17104-17.693424 677.5-22 675.865056-26.178848 673.510224-31.73472 670-33 666.609984-34.20688 660.053392-31.832736 657-29 646.337088-19.017104 642.79568-5.232304 643 8.5 643.18032 20.723296 645.37936 33.008896 648 45 649.29824 51.059424 648.974144 54.881664 645.5 60.5 638.587744 71.841056 633.710128 84.474064 628 96.5 624.934576 103.023712 622.447872 109.986192 618 115.5 607.75776 128.350128 597.368272 140.79688 608.5 158zM662 112C664.873104 110.68832 668.50944 110.18232 670 108 671.7672 105.388256 671.45904 101.377968 672 98 670.97824 97.9552 670.04576 97.58 669 97.5 666.162976 101.59768 663.361056 105.913952 660.5 110 660.9448 110.67344 661.57936 111.30352 662 112zM513.5 585C299.695744 582.517776 132.016954 523.031504 139.5 452 146.983045 380.968496 326.716416 325.017776 540.5 327.5 754.304256 329.982224 921.48304 389.468464 914 460.5 906.516944 531.531488 727.283584 587.481776 513.5 585zM139.5 440.5 139.5 300C139.169232 297.007392 139.148592 293.55824 139.5 290.5 146.983046 219.468512 326.716416 164.040096 540.5 166.5 541.00464 166.50584 541.495888 166.49352 542 166.5 574.098416 209.396304 620.417248 242.853104 677 259 745.58664 278.576832 815.950256 268.985968 874 238 897.6868 253.919856 912.07648 271.77832 914 290.5L914.5 290.5 914.5 431.5C907.430384 364.546464 745.064144 309.893312 540.5 307.5 326.716416 305.01776 147.462373 360.468448 140 431.5 139.669296 434.51352 139.669264 437.508352 140 440.5L139.5 440.5zM139.5 276 139.5 135C139.169232 131.98552 139.148592 129.036368 139.5 126 146.431304 60.185296 301.326032 7.898288 494 2.5 490.1304 52.0936 502.145088 100.67808 526.5 142.5 319.013888 142.6032 147.297069 197.541952 140 267 139.669296 270.01448 139.669264 273.008336 140 276L139.5 276zM914.5 266.5C913.057104 252.839472 904.919344 239.800432 891.5 227.5 899.377936 222.465712 907.22096 217.356208 914.5 211.5L914.5 266.5zM139.5 111 139.5-29.5C139.169232-32.51448 139.148592-35.44176 139.5-38.5 146.983046-109.531504 326.716416-165.482224 540.5-163 552.956592-162.85568 565.38544-162.525728 577.5-162 543.798048-132.495008 517.326048-94.175984 503.5-49 500.730608-39.9532 498.668816-31.076336 497-22 302.983376-17.06776 146.948211 35.841952 140 102 139.669296 104.991648 139.669264 108.008336 140 111L139.5 111z"  horiz-adv-x="1024" />

    
    <glyph glyph-name="arrow-right-thick" unicode="&#58888;" d="M471.15-63.697l450.159 447.69500001-450.158 447.69899999 0-263.48900001-368.458 1e-8 0-368.415 368.458 0z"  horiz-adv-x="1024" />

    
    <glyph glyph-name="shezhi" unicode="&#58993;" d="M697.482 305.541c-35.168 0.51-68.945 7.256-101.269 20.986-3.282 1.394-4.905 0.772-7.057-1.744-55.861-65.302-111.795-130.541-167.719-195.789-48.023-56.029-95.917-112.171-144.124-168.041-29.006-33.617-76.481-34.935-107.927-3.489-27.665 27.664-55.332 55.328-82.994 82.995-30.562 30.567-29.381 78.238 3.357 106.605 51.844 44.921 104.106 89.357 156.194 133.996 69.33 59.414 138.649 118.84 208.039 178.184 2.771 2.37 3.541 4.071 1.975 7.799-63.298 150.689 25.992 322.653 185.712 357.596 43.967 9.619 87.694 7.851 130.919-4.736 19.193-5.589 24.615-26.92 10.487-41.068-45.034-45.099-90.122-90.145-135.187-135.214-13.788-13.789-13.775-30.799 0.033-44.609 26.994-26.997 53.986-53.996 80.988-80.986 13.362-13.356 30.645-13.386 43.986-0.051 44.964 44.947 89.912 89.91 134.871 134.861 15.074 15.071 36.489 9.766 41.911-10.778 25.042-94.886 5.93-179.772-60.164-252.578-42.826-47.175-97.136-73.797-160.466-81.544-10.464-1.28-21.041-1.621-31.565-2.395z m69.196 489.795l-0.888 1.469c-0.716 0.23-1.426 0.483-2.149 0.688-30.386 8.642-61.26 11.32-92.668 7.655-54.55-6.366-101.534-28.829-140.537-67.317-38.02-37.517-60.977-82.996-68.502-135.976-7.009-49.349 0.871-96.382 23.201-140.921 1.741-3.474 1.684-5.228-1.336-7.8-38.404-32.728-76.689-65.596-115.005-98.428-87.29-74.798-174.622-149.546-261.843-224.425-23.988-20.594-24.919-51.598-2.61-73.92 26.98-26.996 53.974-53.979 80.963-80.967 23.24-23.238 53.736-22.23 75.197 2.773 68.919 80.293 137.74 160.671 206.6 241.014 38.586 45.021 77.203 90.016 115.697 135.115 2.414 2.828 4.085 3.033 7.391 1.38 47.023-23.51 96.509-31.021 148.386-22.235 131.944 22.345 219.929 151.06 193.006 282.386-1.432 6.985-3.38 13.864-5.088 20.792l-1.46 0.457c-1.188-1.461-2.256-3.041-3.58-4.366a182866.965 182866.965 0 0 0-132.845-132.864c-20.967-20.944-54.331-20.965-75.257-0.112a106529.506 106529.506 0 0 0-81.762 81.537c-23.992 23.961-23.968 56.159 0.022 80.153 43.501 43.507 87.002 87.014 130.535 130.489 1.328 1.325 3.014 2.29 4.532 3.423z"  horiz-adv-x="1024" />

    
    <glyph glyph-name="arrow-top" unicode="&#58884;" d="M509.928 508.84c7.24 7.991 17.58 7.898 24.782-0.333l270.568-309.222c7.759-8.867 21.237-9.765 30.103-2.007 8.867 7.759 9.766 21.237 2.007 30.103L566.82 536.6030000000001c-24 27.429-64.127 27.792-88.507 0.89L197.526 227.65800000000002c-7.912-8.73-7.249-22.221 1.482-30.133 8.73-7.912 22.221-7.249 30.133 1.482L509.928 508.84z"  horiz-adv-x="1024" />

    
    <glyph glyph-name="arrow-down" unicode="&#58885;" d="M478.312 251.84000000000003c24.38-26.901 64.507-26.538 88.507 0.89l270.57 309.222c7.758 8.867 6.86 22.344-2.008 30.103-8.866 7.759-22.344 6.86-30.103-2.007L534.71 280.827c-7.202-8.231-17.541-8.325-24.782-0.335L229.14 590.326c-7.912 8.73-21.403 9.394-30.133 1.482s-9.394-21.403-1.482-30.134l280.786-309.833z"  horiz-adv-x="1024" />

    
    <glyph glyph-name="arrow-right" unicode="&#58886;" d="M663.50733333 391.406c7.99-7.241 7.897-17.58-0.334-24.782l-309.222-270.569c-8.866-7.759-9.765-21.236-2.007-30.103 7.759-8.866 21.236-9.765 30.103-2.007l309.222 270.569c27.429 24 27.792 64.128 0.89 88.507l-309.833 280.786c-8.73 7.913-22.222 7.248-30.133-1.48199999-7.913-8.73-7.248-22.222 1.482-30.13300001l309.833-280.786z"  horiz-adv-x="1024" />

    
    <glyph glyph-name="wenben" unicode="&#58922;" d="M772.8 737.6L633.6 884.8H403.2C145.6 884.8 142.4 884.8 124.8 848c-9.6-19.2-9.6-62.4-9.6-473.6 0-484.8 0-470.4 28.8-488 11.2-6.4 81.6-8 374.4-6.4l360 1.6 17.6 19.2 17.6 19.2V592l-140.8 145.6z m-124.8-41.6l1.6 80 88-92.8 88-92.8h-88c-100.8 0-92.8-11.2-89.6 105.6z m204.8-459.2l-1.6-296-337.6-1.6c-267.2-1.6-337.6 0-339.2 6.4-1.6 3.2-1.6 203.2-1.6 443.2L176 824l206.4 1.6 206.4 1.6v-118.4c0-123.2 3.2-148.8 24-166.4 9.6-9.6 25.6-9.6 126.4-9.6h115.2l-1.6-296zM496 561.6H265.6v-57.6H496zM265.6 260.8v-28.8l249.6 1.6 249.6 1.6 1.6 27.2 3.2 27.2H265.6zM496 440H265.6v-57.6H496zM265.6 145.6v-28.8H768v57.6H265.6z"  horiz-adv-x="1024" />

    
    <glyph glyph-name="jiantou" unicode="&#58893;" d="M995.556 384l-568.89 398.222-1e-8-170.666L312.89 611.556l0-455.112L426.667 156.44399999999996l0-170.666L995.556 384zM142.22200001 611.556l0-455.112L256.00000001 156.44399999999996 256.00000001 611.556l-113.778 0z m-113.77800001 0l0-455.112 56.89 0L85.334 611.556l-56.89 0z"  horiz-adv-x="1024" />

    
    <glyph glyph-name="arrUp-fill" unicode="&#59257;" d="M789.1111583709719 249.4780684453484l-279.6549224853515 279.65492248535156-278.8075160980225-278.8075160980225z"  horiz-adv-x="1024" />

    
    <glyph glyph-name="sanx-up" unicode="&#58992;" d="M234.88884163 518.52193155l279.65492248-279.65492248 278.8075161 278.8075161z"  horiz-adv-x="1024" />

    
    <glyph glyph-name="Group" unicode="&#58973;" d="M512-66A450 450 0 1 0 962 384 450.36 450.36 0 0 0 512-66z m0 864A414 414 0 1 1 926 384 414.36 414.36 0 0 1 512 798zM443.87748922 222.29913431l43.78405189-77.38576613a14.76 14.76 0 0 1 12.47336362-7.3821948 14.76 14.76 0 0 1 10.43689609 4.3274935l2.80014285 2.80014286 44.54772722 77.13120769a3.6 3.6 0 0 1 1.78190909 1.78190909l1.52735064 324.816571a36 36 0 0 1-11.20057141 25.96496101 44.28 44.28 0 0 1-31.31068827 12.47336362l-30.54701295 0a45.36 45.36 0 0 1-31.56524671-12.72792206 36 36 0 0 1-11.20057142-25.96496101l-2.80014285-324.56201256z m85.53163625 324.30745413l0-32.0743636-50.91168825 0-2.80014285 32.32892204a10.8 10.8 0 0 0 10.18233765 10.18233765l30.54701295 0a11.52 11.52 0 0 0 8.40042856-3.30925974 8.64 8.64 0 0 0 4.58205194-5.60028571z m-54.22094798-298.08793468l1.2727922 233.4300906 50.91168825 0 0.50911688-231.64818151z m25.71040256-68.47622069l-22.40114283 39.20199995 45.0568441 0.25455844zM536.83274616 491.35027288a0.23871963 0.23871963 0 0 1-0.23871962-0.23871963v-3.2118642a0.30382499 0.30382499 0 0 0-0.30382499-0.303825h-5.42544627a0.30382499 0.30382499 0 0 0-0.30382499 0.303825V493.14067013a0.30382499 0.30382499 0 0 0 0.30382499 0.303825h3.49941284a0.23871963 0.23871963 0 0 1 0 0.47743927H530.82135171A0.74328614 0.74328614 0 0 1 530.07806557 493.17864827v-5.31151189a0.74328614 0.74328614 0 0 1 0.74328614-0.74328614h5.50140251a0.74328614 0.74328614 0 0 1 0.74328614 0.74328614v3.25526775a0.23871963 0.23871963 0 0 1-0.23871963 0.23871964"  horiz-adv-x="1024" />

    
    <glyph glyph-name="blocks_i" unicode="&#59068;" d="M766.0032 844.06272c-17.00864-3.19488-31.36512-17.27488-27.91424-27.648 0.53248-1.59744-7.44448-6.64576-17.80736-11.1616l-18.87232-8.50944-6.64576 6.11328c-3.71712 3.45088-10.09664 7.71072-14.09024 9.04192-11.69408 4.51584-33.76128 3.46112-46.52032-2.38592-22.86592-10.37312-23.66464-35.8912-1.3312-47.58528 5.5808-2.9184 9.03168-5.31456 7.97696-5.5808-1.06496 0-5.5808 1.86368-9.84064 3.98336-4.51584 2.38592-7.97696 2.9184-8.50944 1.3312-0.53248-1.59744-18.0736-10.9056-39.34208-21.00224l-38.54336-18.08384-0.79872-108.46208c-0.53248-107.9296-0.53248-108.19584-5.84704-101.81632-7.97696 10.09664-30.30016 18.87232-49.18272 18.87232-21.80096 0-36.94592-4.78208-48.91648-15.42144l-9.84064-9.04192-24.45312 11.69408c-21.80096 10.36288-24.45312 12.4928-24.45312 18.60608 0 31.8976-58.48064 47.31904-89.58976 23.6544-5.04832-3.71712-9.8304-10.62912-11.69408-16.7424-2.92864-9.56416-4.78208-11.1616-29.24544-22.85568l-26.05056-12.4928-7.44448 5.31456c-23.92064 16.7424-67.25632 16.20992-90.64448-1.3312-19.13856-14.35648-21.53472-36.42368-5.5808-52.89984 12.22656-12.4928 28.71296-18.33984 52.89984-18.33984 24.71936 0 46.25408 9.30816 56.09472 24.18688 4.78208 6.912 12.4928 12.22656 31.09888 21.00224l24.45312 11.69408v-10.89536c0-13.55776 10.89536-24.45312 30.5664-30.03392 16.7424-5.04832 31.09888-2.6624 46.78656 7.71072 9.30816 6.11328 10.36288 8.2432 10.36288 17.55136 0 5.84704 0.53248 10.62912 1.06496 10.62912s12.4928-5.31456 26.84928-11.96032c14.35648-6.64576 27.38176-11.69408 28.9792-11.1616 1.59744 0.53248 7.44448-2.39616 13.02528-6.37952 26.84928-19.4048 76.83072-15.67744 94.63808 7.17824 5.31456 6.64576 5.5808 6.64576 5.5808 1.59744 0-3.19488 2.6624-7.44448 6.11328-9.5744 6.92224-4.78208 219.5968-99.95264 222.78144-99.95264 1.3312 0 2.39616 62.47424 2.39616 139.02848V640.69632l-51.3024 23.92064c-27.91424 13.02528-66.4576 31.09888-85.59616 40.1408l-34.56 16.4864 9.84064 4.51584c9.30816 4.51584 9.84064 4.51584 17.28512-0.79872 13.02528-9.30816 27.38176-11.69408 42.26048-7.17824 20.20352 5.84704 25.51808 13.02528 24.7296 33.2288l-0.79872 16.4864 13.29152 4.51584c7.17824 2.6624 16.75264 6.64576 21.53472 9.04192 10.89536 5.84704 10.36288 5.84704 12.22656-3.19488 2.39616-11.96032 17.27488-19.67104 34.82624-18.33984 19.13856 1.59744 30.83264 9.8304 30.83264 22.0672v9.04192l18.0736-8.50944c15.42144-7.71072 43.85792-31.09888 37.48864-31.09888-1.06496 0-2.92864 1.3312-3.72736 2.6624-4.2496 6.64576-6.64576 1.3312-6.64576-14.35648 0-16.7424 0.26624-17.54112 9.56416-24.45312 14.62272-11.1616 35.8912-11.96032 53.9648-2.38592 7.44448 4.2496 13.55776 8.2432 13.55776 9.04192 0.26624 6.11328 4.78208 8.2432 11.42784 5.31456 3.98336-1.86368 7.17824-3.98336 7.17824-5.04832 0-1.06496-35.62496-18.87232-78.9504-39.87456-43.59168-21.00224-79.74912-38.54336-80.2816-39.07584-1.59744-1.06496-1.86368-237.66016-0.26624-260.2496l1.3312-18.60608 111.11424 50.21696L1013.76 464.72192v42.79296c0 23.66464-0.79872 81.34656-1.86368 128.6656l-1.59744 85.59616-36.15744 18.0736c-19.93728 10.09664-37.21216 18.0736-38.8096 17.80736-1.3312-0.26624-7.97696-2.92864-14.62272-6.11328-12.22656-5.84704-40.40704-7.97696-47.0528-3.72736-1.86368 1.06496 4.51584 1.59744 14.09024 1.06496 29.77792-1.86368 51.56864 10.62912 51.56864 30.03392 0 10.09664-7.71072 21.00224-19.4048 27.11552-13.02528 6.64576-40.40704 6.11328-54.76352-1.3312l-11.69408-6.11328-19.4048 9.30816c-14.09024 6.64576-19.67104 10.62912-19.67104 14.35648 0 6.64576-12.75904 18.33984-22.59968 20.46976-14.34624 3.20512-15.93344 3.47136-25.77408 1.34144z m8.50944-50.50368c14.09024-1.86368 14.35648-1.86368 3.19488-2.39616-10.62912-0.26624-29.77792 5.5808-29.77792 9.04192 0 0.79872 2.6624 0 5.84704-1.59744 3.18464-1.86368 12.4928-3.9936 20.736-5.04832z m-82.41152-30.84288c0-3.71712-20.20352-9.03168-33.76128-8.77568l-15.42144 0.53248 18.60608 1.59744c10.37312 1.06496 21.00224 3.19488 23.92064 5.04832 6.12352 3.46112 6.656 3.72736 6.656 1.59744zM376.02304 517.35552c-9.04192-16.4864-53.9648-23.13216-76.56448-11.42784-6.37952 3.19488-11.42784 6.64576-11.42784 7.17824 0 0.79872 4.51584-0.79872 10.09664-3.72736 22.59968-11.42784 54.76352-9.04192 70.44096 5.31456 10.11712 9.04192 10.91584 9.30816 7.45472 2.6624zM759.88992 750.75584c-10.62912-2.9184-22.0672-15.1552-23.93088-24.9856-2.12992-10.62912 5.84704-22.86592 18.87232-29.51168 13.29152-6.37952 41.472-6.64576 53.43232-0.26624 17.80736 9.30816 24.45312 27.91424 15.1552 41.472-9.56416 13.55776-40.67328 20.20352-63.52896 13.29152zM742.61504 683.23328c0-14.35648 1.06496-18.0736 6.11328-22.86592 7.97696-7.71072 21.00224-13.02528 31.63136-13.02528 11.1616 0 35.35872 11.1616 39.07584 18.33984 2.6624 5.04832 4.2496 34.82624 1.86368 34.82624-0.79872 0-5.84704-2.6624-11.1616-5.84704-14.09024-8.2432-40.67328-8.2432-56.09472-0.26624l-11.42784 6.11328v-17.27488zM436.89984 441.32352c0-22.0672 0-22.33344 8.77568-28.9792 13.55776-10.36288 26.84928-14.88896 43.85792-14.88896 13.02528 0 17.80736 1.59744 31.09888 9.56416l15.68768 9.30816 11.42784-4.2496c6.37952-2.39616 11.96032-5.31456 12.4928-6.37952 0.79872-1.06496-49.98144-25.78432-112.1792-55.296l-113.50016-53.42208-0.79872-187.67872c-0.53248-181.56544-0.26624-187.94496 4.2496-186.61376 12.22656 3.98336 297.19552 132.38272 300.12416 135.31136 2.6624 2.6624 3.46112 41.472 3.46112 175.98464l0.26624 172.78976-51.3024 24.18688c-31.8976 15.1552-51.56864 26.05056-52.10112 28.71296-1.06496 5.31456-0.26624 5.5808-15.42144-2.9184-11.42784-6.64576-15.95392-7.44448-35.62496-7.44448s-24.71936 1.06496-36.67968 7.17824l-13.824 7.17824v-22.34368zM63.13984 430.42816l-48.384-25.26208-1.59744-80.2816c-0.79872-44.1344-1.86368-122.01984-2.12992-172.78976l-0.79872-92.50816 148.86912-67.52256c81.87904-37.21216 149.66784-67.7888 150.7328-67.7888 1.3312 0 1.86368 84.5312 1.59744 187.94496l-0.79872 187.67872-108.19584 52.10112c-59.27936 28.71296-107.39712 52.91008-106.5984 54.23104 0.53248 1.06496 5.5808 4.2496 11.1616 6.912l9.84064 5.05856 2.92864-7.44448c3.71712-10.09664 24.18688-22.86592 42.27072-26.58304 19.67104-4.25984 39.60832 1.59744 54.23104 15.67744l10.62912 10.10688v46.25408l-7.44448-5.04832c-22.86592-16.4864-60.34432-18.0736-86.39488-3.98336-9.5744 5.31456-15.42144 7.17824-16.22016 5.04832-0.79872-1.86368-1.3312-1.86368-1.3312 0.53248-0.26624 1.59744-1.06496 3.19488-2.12992 3.19488-1.32096-0.27648-23.92064-11.70432-50.23744-25.52832zM304.78336 447.96928c-27.11552-5.5808-44.12416-21.26848-44.12416-40.93952 0-13.55776 3.71712-20.736 14.88896-29.24544 8.76544-6.90176 34.54976-14.87872 47.04256-14.87872 21.80096 0 51.56864 13.824 59.01312 27.38176 5.04832 9.84064 3.71712 26.84928-3.19488 36.42368-11.68384 16.47616-47.3088 26.5728-73.6256 21.25824zM269.42464 355.19488c0-28.18048 1.86368-31.09888 26.05056-42.00448 24.9856-11.69408 55.56224-7.17824 73.63584 10.89536 6.11328 6.11328 6.64576 8.50944 6.64576 30.84288v24.18688l-6.912-5.31456c-9.29792-7.17824-30.83264-13.55776-46.25408-13.55776-15.42144 0-36.94592 6.37952-46.25408 13.55776l-6.912 5.31456v-23.92064z"  horiz-adv-x="1024" />

    
    <glyph glyph-name="tishi" unicode="&#59348;" d="M512 890.88c-280.064 0-506.88-226.816-506.88-506.88s226.816-506.88 506.88-506.88 506.88 226.816 506.88 506.88-226.816 506.88-506.88 506.88z m79.36-693.248c-38.4-57.344-77.312-101.888-142.848-101.888-44.544 7.168-62.976 39.424-53.248 72.192l84.48 279.04c2.048 6.656-1.536 14.336-7.68 16.384-6.144 2.048-18.432-5.632-29.184-17.408l-50.688-61.44c-1.536 10.24 0 27.136 0 34.304 38.4 57.344 100.864 102.912 143.872 102.912 40.448-4.096 59.904-36.352 52.736-72.192l-84.992-280.064c-1.024-6.656 2.048-12.8 8.192-14.848 6.144-2.048 19.456 5.632 29.696 17.408l50.688 61.44c1.536-11.264-1.024-29.184-1.024-35.84z m-11.264 364.032c-32.256 0-58.368 23.552-58.368 57.856 0 34.304 26.112 57.856 58.368 57.856 32.256 0 58.368-23.552 58.368-57.856 0-34.304-26.112-57.856-58.368-57.856z"  horiz-adv-x="1024" />

    
    <glyph glyph-name="jinggao" unicode="&#58947;" d="M526.275527 864.140917a63.723773 63.723773 0 0 0 110.375948 0l517.621839-896.555257a63.723773 63.723773 0 0 0-55.184788-95.58566H63.838476a63.723773 63.723773 0 0 0-55.184788 95.58566z m31.81728-717.313027h44.644876l16.912289 266.129595 1.350944 80.929192H539.829574l2.026416-80.929192z m22.303321-169.416024a53.846589 53.846589 0 1 1-54.114228 54.165207 52.011344 52.011344 0 0 1 54.133345-54.165207z"  horiz-adv-x="1163" />

    
    <glyph glyph-name="shujukuxifen" unicode="&#59245;" d="M738.51904 485.46304c-169.79968 0-258.65728-65.32608-258.65728-129.84832v-346.70592c0-64.512 88.85248-129.82272 258.65728-129.82272 168.5248 0 257.24928 64.33792 258.56512 128.4096h0.06656v348.12928c0 64.52224-88.82688 129.83808-258.63168 129.83808z m190.2336-476.53376c0-18.36544-64.72704-61.44512-190.2336-61.44512-125.53216 0-190.27456 43.07968-190.27456 61.44512v82.7648c43.40736-23.55712 107.1104-39.2704 190.27456-39.2704 83.15392 0 146.8416 15.71328 190.2336 39.2704v-82.7648z m0 173.33248c0-18.36544-64.72704-61.42976-190.2336-61.42976-125.53216 0-190.27456 43.06432-190.27456 61.45024v82.76992c43.40736-23.57248 107.1104-39.28064 190.27456-39.28064 83.15392 0 146.8416 15.6928 190.2336 39.2704v-82.78016z m-190.2336 111.90272c-125.53216 0-190.27456 43.06432-190.27456 61.45024 0 18.3808 64.75264 61.45536 190.27456 61.45536 125.51168 0 190.2336-43.07456 190.2336-61.45536 0-18.38592-64.72192-61.45024-190.2336-61.45024zM431.97952 522.84416c118.30272 0 241.24928 26.01984 315.07456 75.55072V508.1088h68.39296V705.87904c0 118.89152-197.57056 183.04-383.47264 183.04-185.88672 0-383.4624-64.14848-383.4624-183.04v-539.52512c0-118.8864 197.57568-183.04 383.46752-183.04V51.712c-195.21024 0-315.06944 66.76992-315.06944 114.64192v162.27328c73.8304-49.53088 196.77184-75.5456 315.06944-75.5456v68.38784c-195.21024 0-315.06944 66.77504-315.06944 114.6368V598.39488c73.81504-49.53088 196.7616-75.55072 315.06944-75.55072z m0 297.6768c195.22048 0 315.07456-66.77504 315.07456-114.64192s-119.85408-114.6368-315.07456-114.6368c-195.21024 0-315.06944 66.76992-315.06944 114.64192s119.8592 114.6368 315.06944 114.6368z"  horiz-adv-x="1024" />

    
    <glyph glyph-name="shandian" unicode="&#58986;" d="M175.194353-114.748235a37.195294 37.195294 0 0 0-12.980706 51.742117L396.890353 315.331765l-165.466353 95.533176a37.345882 37.345882 0 0 0-18.612706 30.629647 37.345882 37.345882 0 0 0 16.052706 32.045177L803.599059 869.436235a37.376 37.376 0 0 0 48.188235-5.12 37.044706 37.044706 0 0 0 2.078118-48.399059L577.837176 466.221176l189.470118-109.387294c10.932706-6.324706 17.829647-17.648941 18.462118-30.117647 0.722824-12.498824-4.969412-24.515765-15.119059-31.984941L215.732706-112.459294c-12.047059-8.944941-28.009412-9.547294-40.538353-2.319059z m125.530353 563.2l150.618353-89.931294a37.195294 37.195294 0 0 0 12.980706-51.742118l-179.380706-291.237647 419.358117 308.043294-190.704941 103.725176a37.014588 37.014588 0 0 0-10.601411 55.115295l201.306352 244.043294-403.57647-277.985883z"  horiz-adv-x="1024" />

    
    <glyph glyph-name="arrow-big-right" unicode="&#58881;" d="M8.92399343 481.85404439c0.0260979 10.830625 8.76889157 19.57341866 19.59951656 19.58646761l565.41082055-0.01304895-96.47085614 244.26321602c-3.21004066 8.18168901-0.61330045 17.53778312 6.42008132 22.82260617 7.03338177 5.31092095 16.74179743 5.28482304 23.72298342-0.11744051l479.80973626-368.8806482c4.81506099-3.69285166 7.64668223-9.44743675 7.64668223-15.50214759 0-6.09385767-2.83162124-11.82234487-7.64668223-15.52824547l-479.80973626-368.8806482c-3.52321536-2.70113177-7.7249759-4.07127108-11.95283431-4.07127107-4.12346688 0-8.28608056 1.31794352-11.77014911 3.95383056-7.03338177 5.28482303-9.65621988 14.64091716-6.42008132 22.82260617L593.96042843 266.559488l-565.43691844-0.01304895c-10.830625 0.01304894-19.57341866 8.76889157-19.57341867 19.57341866L8.92399343 481.85404439z"  horiz-adv-x="1024" />

    
    <glyph glyph-name="xiangyouyuanjiantouyoujiantouxiangyoumianxing" unicode="&#59642;" d="M967.111111 384c0-251.363556-203.747556-455.111111-455.111111-455.111111S56.888889 132.636444 56.888889 384 260.636444 839.111111 512 839.111111s455.111111-203.747556 455.111111-455.111111z m-532.110222 179.000889L614.001778 384l-179.000889-179.000889a28.444444 28.444444 0 0 1 40.220444-40.220444l199.111111 199.111111a28.444444 28.444444 0 0 1 0 40.220444l-199.111111 199.111111a28.444444 28.444444 0 0 1-40.220444-40.220444z"  horiz-adv-x="1024" />

    
    <glyph glyph-name="duihao" unicode="&#58972;" d="M416.832 97.92c-16.192 0-32.32 6.208-44.672 18.56L119.424 370.24c-24.64 24.768-24.64 64.96 0 89.728 24.704 24.768 64.704 24.768 89.344 0l208.064-208.896L814.4 650.24c24.64 24.832 64.64 24.832 89.344 0 24.64-24.768 24.64-64.896 0-89.664L461.504 116.48c-12.352-12.352-28.544-18.56-44.672-18.56z"  horiz-adv-x="1024" />

    
    <glyph glyph-name="arrow-left" unicode="&#58880;" d="M381.825747 376.59418000000005C373.835561 383.83528701 373.929114 394.17425299 382.15991 401.376198L691.381431 671.94503C700.248346 679.703582 701.146852 693.181184 693.388303 702.048098 685.629751 710.9150119999999 672.152149 711.813519 663.285235 704.05497L354.063712 433.48613799C326.63514 409.48613801 326.272047 369.35886100000005 353.174253 344.978737L663.007586 64.19227799999999C671.73795 56.28038600000002 685.229163 56.94388900000001 693.141056 65.67425200000002 701.052947 74.40461600000003 700.389444 87.89582900000005 691.659081 95.80772300000001L381.825747 376.59418000000005Z"  horiz-adv-x="1024" />

    


  </font>
</defs>
</svg>
